<?xml version="1.0" encoding="UTF-8" standalone="no"?>
<!-- Created with Inkscape (http://www.inkscape.org/) -->

<svg
   width="105.2375mm"
   height="105.00973mm"
   viewBox="0 0 105.2375 105.00973"
   version="1.1"
   id="svg5"
   inkscape:version="1.1.2 (0a00cf5339, 2022-02-04)"
   sodipodi:docname="404.svg"
   xmlns:inkscape="http://www.inkscape.org/namespaces/inkscape"
   xmlns:sodipodi="http://sodipodi.sourceforge.net/DTD/sodipodi-0.dtd"
   xmlns="http://www.w3.org/2000/svg"
   xmlns:svg="http://www.w3.org/2000/svg">
  <sodipodi:namedview
     id="namedview7"
     pagecolor="#ffffff"
     bordercolor="#666666"
     borderopacity="1.0"
     inkscape:pageshadow="2"
     inkscape:pageopacity="0.0"
     inkscape:pagecheckerboard="0"
     inkscape:document-units="mm"
     showgrid="false"
     inkscape:zoom="1.4823793"
     inkscape:cx="365.9657"
     inkscape:cy="251.9598"
     inkscape:window-width="1920"
     inkscape:window-height="1003"
     inkscape:window-x="0"
     inkscape:window-y="0"
     inkscape:window-maximized="1"
     inkscape:current-layer="layer1" />
  <defs
     id="defs2">
    <rect
       x="319.6665"
       y="237.70473"
       width="194.22701"
       height="224.76025"
       id="rect6735" />
    <rect
       x="319.6665"
       y="237.70473"
       width="194.22701"
       height="224.76025"
       id="rect18219" />
    <rect
       x="319.6665"
       y="237.70473"
       width="194.22701"
       height="224.76025"
       id="rect18225" />
  </defs>
  <g
     inkscape:label="Layer 1"
     inkscape:groupmode="layer"
     id="layer1"
     transform="translate(-59.49008,-40.774343)">
    <g
       id="path1214"
       transform="rotate(-45,112.18974,83.921408)">
      <path
         style="color:#000000;fill:#ffffff;fill-opacity:0;stroke-width:6.00001;-inkscape-stroke:none;paint-order:fill markers stroke"
         d="M 153.22531,87.949112 A 47.790161,47.790161 0 0 1 105.43515,135.73927 47.790161,47.790161 0 0 1 57.644989,87.949112 47.790161,47.790161 0 0 1 105.43515,40.158951 47.790161,47.790161 0 0 1 153.22531,87.949112 Z"
         id="path2770" />
      <path
         id="path2772"
         style="color:#000000;fill:#757575;stroke-width:3.77953;-inkscape-stroke:none;paint-order:fill markers stroke;fill-opacity:1"
         d="m 398.49609,140.44141 c -105.88374,0 -191.96484,86.0811 -191.96484,191.96484 1e-5,100.26 77.1841,182.75302 175.27539,191.23437 v 73.13672 c 0,0 -2.52175,17.18976 17.17383,17.46624 19.69558,0.27647 17.17383,-17.46624 17.17383,-17.46624 v -73.22265 c 97.62994,-8.93845 174.30078,-91.21839 174.30078,-191.14844 0,-105.88374 -86.07526,-191.96484 -191.95899,-191.96484 z m 0,22.67578 c 93.62809,0 169.28125,75.66098 169.28125,169.28906 0,93.62809 -75.6532,169.28906 -169.28125,169.28906 -93.62808,0 -169.28905,-75.66097 -169.28906,-169.28906 0,-93.62808 75.66097,-169.28906 169.28906,-169.28906 z"
         transform="scale(0.26458333)"
         sodipodi:nodetypes="sscczccsssssss" />
    </g>
    <g
       aria-label="?"
       transform="matrix(0.19765894,0,0,0.19765894,49.224969,38.155467)"
       id="text6733"
       style="font-size:192px;line-height:1.25;letter-spacing:0px;word-spacing:0px;white-space:pre;shape-inside:url(#rect6735);fill:#585858;fill-opacity:1">
      <path
         d="m 355.93874,374.34976 v -1.77272 q 0.0682,-12.34091 2.31818,-19.63637 2.31819,-7.29545 6.54546,-11.72727 4.22727,-4.5 10.29545,-8.25 4.15909,-2.59091 7.43182,-5.65909 3.34091,-3.13636 5.25,-6.95455 1.90909,-3.88636 1.90909,-8.65909 0,-5.38636 -2.52272,-9.34091 -2.52273,-3.95454 -6.81819,-6.13636 -4.22727,-2.18182 -9.47727,-2.18182 -4.84091,0 -9.20454,2.11364 -4.29546,2.04545 -7.1591,6.27273 -2.79545,4.15909 -3.13636,10.56818 h -24.27273 q 0.34091,-12.95455 6.27273,-21.68182 6,-8.72727 15.81818,-13.09091 9.88637,-4.36364 21.81818,-4.36364 13.02273,0 22.9091,4.56819 9.95454,4.56818 15.47727,13.02272 5.59091,8.38637 5.59091,19.90909 0,7.77273 -2.52273,13.9091 -2.45455,6.13636 -7.02273,10.90909 -4.56818,4.77272 -10.84091,8.52272 -5.52272,3.40909 -9.06818,7.09091 -3.47727,3.68182 -5.18182,8.65909 -1.63636,4.90909 -1.70454,12.13637 v 1.77272 z m 11.86364,42.54546 q -6.13636,0 -10.56818,-4.36364 -4.43182,-4.36363 -4.43182,-10.63636 0,-6.13636 4.43182,-10.5 4.43182,-4.36364 10.56818,-4.36364 6.06818,0 10.5,4.36364 4.5,4.36364 4.5,10.5 0,4.15909 -2.11364,7.56818 -2.04545,3.40909 -5.45454,5.45455 -3.34091,1.97727 -7.43182,1.97727 z"
         style="font-weight:600;font-family:Inter;-inkscape-font-specification:'Inter Semi-Bold';fill:#585858;fill-opacity:1"
         id="path18227" />
    </g>
    <g
       aria-label="?"
       transform="matrix(0.244262,0,0,0.244262,4.6809478,9.3169076)"
       id="text18217"
       style="font-size:192px;line-height:1.25;letter-spacing:0px;word-spacing:0px;white-space:pre;shape-inside:url(#rect18219)">
      <path
         d="m 355.93874,374.34976 v -1.77272 q 0.0682,-12.34091 2.31818,-19.63637 2.31819,-7.29545 6.54546,-11.72727 4.22727,-4.5 10.29545,-8.25 4.15909,-2.59091 7.43182,-5.65909 3.34091,-3.13636 5.25,-6.95455 1.90909,-3.88636 1.90909,-8.65909 0,-5.38636 -2.52272,-9.34091 -2.52273,-3.95454 -6.81819,-6.13636 -4.22727,-2.18182 -9.47727,-2.18182 -4.84091,0 -9.20454,2.11364 -4.29546,2.04545 -7.1591,6.27273 -2.79545,4.15909 -3.13636,10.56818 h -24.27273 q 0.34091,-12.95455 6.27273,-21.68182 6,-8.72727 15.81818,-13.09091 9.88637,-4.36364 21.81818,-4.36364 13.02273,0 22.9091,4.56819 9.95454,4.56818 15.47727,13.02272 5.59091,8.38637 5.59091,19.90909 0,7.77273 -2.52273,13.9091 -2.45455,6.13636 -7.02273,10.90909 -4.56818,4.77272 -10.84091,8.52272 -5.52272,3.40909 -9.06818,7.09091 -3.47727,3.68182 -5.18182,8.65909 -1.63636,4.90909 -1.70454,12.13637 v 1.77272 z m 11.86364,42.54546 q -6.13636,0 -10.56818,-4.36364 -4.43182,-4.36363 -4.43182,-10.63636 0,-6.13636 4.43182,-10.5 4.43182,-4.36364 10.56818,-4.36364 6.06818,0 10.5,4.36364 4.5,4.36364 4.5,10.5 0,4.15909 -2.11364,7.56818 -2.04545,3.40909 -5.45454,5.45455 -3.34091,1.97727 -7.43182,1.97727 z"
         style="font-weight:600;font-family:Inter;-inkscape-font-specification:'Inter Semi-Bold';fill:#9d9d9d;fill-opacity:1"
         id="path18230" />
    </g>
    <g
       aria-label="?"
       transform="matrix(0.16429583,0,0,0.16429583,56.371756,14.27955)"
       id="text18223"
       style="font-size:192px;line-height:1.25;letter-spacing:0px;word-spacing:0px;white-space:pre;shape-inside:url(#rect18225)">
      <path
         d="m 355.93874,374.34976 v -1.77272 q 0.0682,-12.34091 2.31818,-19.63637 2.31819,-7.29545 6.54546,-11.72727 4.22727,-4.5 10.29545,-8.25 4.15909,-2.59091 7.43182,-5.65909 3.34091,-3.13636 5.25,-6.95455 1.90909,-3.88636 1.90909,-8.65909 0,-5.38636 -2.52272,-9.34091 -2.52273,-3.95454 -6.81819,-6.13636 -4.22727,-2.18182 -9.47727,-2.18182 -4.84091,0 -9.20454,2.11364 -4.29546,2.04545 -7.1591,6.27273 -2.79545,4.15909 -3.13636,10.56818 h -24.27273 q 0.34091,-12.95455 6.27273,-21.68182 6,-8.72727 15.81818,-13.09091 9.88637,-4.36364 21.81818,-4.36364 13.02273,0 22.9091,4.56819 9.95454,4.56818 15.47727,13.02272 5.59091,8.38637 5.59091,19.90909 0,7.77273 -2.52273,13.9091 -2.45455,6.13636 -7.02273,10.90909 -4.56818,4.77272 -10.84091,8.52272 -5.52272,3.40909 -9.06818,7.09091 -3.47727,3.68182 -5.18182,8.65909 -1.63636,4.90909 -1.70454,12.13637 v 1.77272 z m 11.86364,42.54546 q -6.13636,0 -10.56818,-4.36364 -4.43182,-4.36363 -4.43182,-10.63636 0,-6.13636 4.43182,-10.5 4.43182,-4.36364 10.56818,-4.36364 6.06818,0 10.5,4.36364 4.5,4.36364 4.5,10.5 0,4.15909 -2.11364,7.56818 -2.04545,3.40909 -5.45454,5.45455 -3.34091,1.97727 -7.43182,1.97727 z"
         style="font-weight:600;font-family:Inter;-inkscape-font-specification:'Inter Semi-Bold';fill:#757575;fill-opacity:1"
         id="path18233" />
    </g>
  </g>
</svg>
